<svg
version="1.1"
xmlns="http://www.w3.org/2000/svg"
xmlns:xlink="http://www.w3.org/1999/xlink"
x="0px"
y="0px"
width="994px"
height="1170px"
viewBox="0 0 994 1170"
style="enable-background:new 0 0 994 1170;"
preserveAspectRatio="xMinYMin meet"
xml:space="preserve"
fill="currentColor"
>
	<path d="M626.1,345.8L60.7,567.5l-57.4-143L269.6,4.7H724l266.7,419.8l-78.5,195.4L626.1,345.8z M876.2,452.9l7.4-18.5
		l-96.4-151.8l-62.9,24.7L876.2,452.9z M114.1,443.7l620.8-243.4l-63.4-99.9H322.2L110.4,434.4L114.1,443.7z"/>
	<path d="M300.7,1165.3l-48.3-120.2l-224.6,62.6l-25.7-92.2l307.2-85.6l56.1,139.7h262.8l56.2-139.7l307.4,85.6
		l-25.7,92.2l-224.9-62.6l-48.3,120.2H300.7z"/>
</svg>
