<svg 
class="am-logo"
version="1.1" 
xmlns="http://www.w3.org/2000/svg" 
xmlns:xlink="http://www.w3.org/1999/xlink" 
x="0px" 
y="0px"
width="990px" 
height="1170px" 
viewBox="0 0 990 1170" 
preserveAspectRatio="xMinYMin meet"
enable-background="new 0 0 990 1170" 
xml:space="preserve">
	<path d="M647.527,320.549l265.229,285.792l71-172.737L879.579,229.38l0.365-0.145L764.36,5.122H309.412
		L5.897,417.325l60.63,131.451L647.527,320.549z M901.169,436.979l-13.236,32.209L722.916,291.38l86.649-33.979L901.169,436.979z
		M347.356,80.181h371.263l56.522,109.598L105.017,453.016l-12.398-26.878L347.356,80.181z"/>
	<polygon points="692.707,946.604 643.705,1089.82 361.462,1089.82 309.231,947.741 7.105,1032.268 27.365,1104.539 
		262.702,1038.699 309.084,1164.879 697.355,1164.879 740.138,1039.837 962.138,1108.48 984.103,1036.707"/>
</svg>